# Blender 3.6.1
# www.blender.org
mtllib sol.mtl
o Círculo
v 10.000000 0.000000 -0.000001
v 9.238795 3.826835 -0.000001
v 7.071068 7.071068 -0.000000
v 3.826835 9.238795 0.000000
v 0.000000 10.000000 0.000000
v -3.826835 9.238795 0.000001
v -7.071068 7.071068 0.000001
v -9.238795 3.826835 0.000001
v -10.000000 0.000000 0.000001
v -9.238795 -3.826835 0.000001
v -7.071068 -7.071068 0.000000
v -3.826835 -9.238795 -0.000000
v -0.000000 -10.000000 -0.000000
v 3.826835 -9.238795 -0.000001
v 7.071068 -7.071068 -0.000001
v 9.238795 -3.826835 -0.000001
v 0.000000 0.000000 0.000000
vn -0.0000 -0.0000 1.0000
vt 0.000000 0.000000
s 0
f 5/1/1 17/1/1 4/1/1
f 17/1/1 5/1/1 6/1/1
f 13/1/1 14/1/1 17/1/1
f 17/1/1 12/1/1 13/1/1
f 17/1/1 14/1/1 15/1/1
f 15/1/1 16/1/1 17/1/1
f 7/1/1 17/1/1 6/1/1
f 17/1/1 7/1/1 8/1/1
f 17/1/1 16/1/1 1/1/1
f 1/1/1 2/1/1 17/1/1
f 9/1/1 17/1/1 8/1/1
f 17/1/1 9/1/1 10/1/1
f 11/1/1 12/1/1 17/1/1
f 17/1/1 10/1/1 11/1/1
f 17/1/1 2/1/1 3/1/1
f 17/1/1 3/1/1 4/1/1
